<svg width="150" height="150" viewBox="0 0 150 150" fill="none" xmlns="http://www.w3.org/2000/svg">
    <path d="M25 62.5H125M75 43.75V25M43.75 43.75V25M106.25 43.75V25M31.25 125H118.75C120.408 125 121.997 124.342 123.169 123.169C124.342 121.997 125 120.408 125 118.75V43.75C125 42.0924 124.342 40.5027 123.169 39.3306C121.997 38.1585 120.408 37.5 118.75 37.5H31.25C29.5924 37.5 28.0027 38.1585 26.8306 39.3306C25.6585 40.5027 25 42.0924 25 43.75V118.75C25 120.408 25.6585 121.997 26.8306 123.169C28.0027 124.342 29.5924 125 31.25 125ZM50 81.25H50.0625V81.3125H50V81.25ZM75 81.25H75.0625V81.3125H75V81.25ZM100 81.25H100.063V81.3125H100V81.25ZM50 106.25H50.0625V106.313H50V106.25ZM75 106.25H75.0625V106.313H75V106.25ZM100 106.25H100.063V106.313H100V106.25Z" stroke="#DF4646" stroke-width="8.75" stroke-linecap="round" stroke-linejoin="round"/>
</svg>
